<svg xmlns="http://www.w3.org/2000/svg" viewBox="0 0 1000 1000"><defs><style>.a{fill:#009bd5;}.b{fill:#fff;}.c{opacity:0.25;}</style></defs><title>Logo Small</title><rect class="a" x="146.447" y="146.447" width="707.107" height="707.107" transform="translate(-207.107 500) rotate(-45)"/><circle class="b" cx="500" cy="500" r="308.374"/><circle class="a" cx="500" cy="500" r="276.293"/><g class="c"><path class="a" d="M500.022,223.2c152.318,0,276.271,124.193,276.271,276.828,0,152.607-123.95,276.764-276.271,276.764-152.345,0-276.315-124.159-276.315-276.764,0-152.633,123.97-276.828,276.315-276.828"/><path class="b" d="M500.017,232.79c-147.06,0-266.735,119.86-266.735,267.247-.006,147.327,119.675,267.18,266.735,267.18,147.081,0,266.712-119.853,266.712-267.18C766.729,352.655,647.1,232.79,500.017,232.79Zm3.052,17.148.023.808a3.692,3.692,0,0,0-.825.161,1.131,1.131,0,0,0-.691.584L492.4,268.28l.446,8.679c.045.447.2.762.446.869a3.129,3.129,0,0,0,.869.227l.022.778-10.406.523-.044-.784a3.782,3.782,0,0,0,.846-.288,1.013,1.013,0,0,0,.379-.94l-.423-8.38L472.61,252.943a1.085,1.085,0,0,0-.78-.474,6.507,6.507,0,0,0-.935-.092l-.023-.759L483.35,250.5l.045.768a4.692,4.692,0,0,0-.869.154.509.509,0,0,0-.468.6,3.27,3.27,0,0,0,.579,1.388c.423.566,4.857,6.355,5.5,7.2.133-.35,3.609-6.577,4.01-7.386a6.186,6.186,0,0,0,.691-1.7.577.577,0,0,0-.535-.608,4.193,4.193,0,0,0-.78-.065l-.022-.771Zm-38.636.886,1.916,9.37-.691.127c-.133-.593-.312-.925-.579-1.041a1.142,1.142,0,0,0-.78-.136l-8.244,1.66,3.921,19.644c.067.486.268.746.6.818a3.791,3.791,0,0,0,.958.082l.156.753-10.45,2.115-.134-.778a2.379,2.379,0,0,0,.825-.439c.267-.171.356-.512.267-.98l-3.921-19.653-8.291,1.663a1.258,1.258,0,0,0-.627.407c-.207.208-.236.64-.109,1.241l-.735.118-1.885-9.36.7-.136c.162.619.332.98.6,1.105a1.206,1.206,0,0,0,.735.109l24.339-4.908v0a1.2,1.2,0,0,0,.646-.392,1.6,1.6,0,0,0,.111-1.248Zm79.456,2.95a21.181,21.181,0,0,1,2.786.292,20.838,20.838,0,0,1,5.347,1.877,15.779,15.779,0,0,1,4.5,3.551,13.088,13.088,0,0,1,2.763,5.187,14.779,14.779,0,0,1,.156,6.81,14.146,14.146,0,0,1-2.585,6.312,13.5,13.5,0,0,1-4.523,3.759,14.174,14.174,0,0,1-5.459,1.562,20.442,20.442,0,0,1-5.615-.261,22.558,22.558,0,0,1-5.392-1.831,15.044,15.044,0,0,1-4.479-3.434,13.455,13.455,0,0,1-2.807-5.145,15.026,15.026,0,0,1-.111-6.793,14,14,0,0,1,2.584-6.311,13.708,13.708,0,0,1,4.523-3.821,14.9,14.9,0,0,1,5.459-1.653,20.237,20.237,0,0,1,2.852-.1Zm25.758,6.05,24.265,8.5a1.361,1.361,0,0,0,.78-.008c.267-.092.535-.442.735-1.014l.669.234-2.9,8.355-.691-.243a1.83,1.83,0,0,0,.089-1.31,1.074,1.074,0,0,0-.557-.5l-15.151-5.265-1.939,5.68,10.2,3.563a1.216,1.216,0,0,0,.758-.016c.245-.082.468-.414.69-.989l.714.227-2.875,8.273-.691-.245c.223-.619.268-1.058.09-1.335a1.194,1.194,0,0,0-.557-.492l-10.25-3.565-2.9,8.373c-.178.468-.133.809.156,1.014a4.235,4.235,0,0,0,1.025.635l-.245.758L560.4,287.146l.245-.727a4.07,4.07,0,0,0,1.2.161.959.959,0,0,0,.757-.718l8.133-23.605a.851.851,0,0,0-.156-1.032,7.76,7.76,0,0,0-1.136-.666Zm-141.366.566.269.771a4.365,4.365,0,0,0-1.245.682.9.9,0,0,0-.178,1.04l7.76,23.657a.827.827,0,0,0,.818.693,4.752,4.752,0,0,0,1.361-.179l.261.736-11.161,3.634-.236-.735a4.46,4.46,0,0,0,1.25-.693.836.836,0,0,0,.178-1l-7.8-23.684c-.208-.456-.439-.717-.753-.726a4.905,4.905,0,0,0-1.429.2l-.234-.753Zm115.519.3a8.682,8.682,0,0,0-1.6.127,8.522,8.522,0,0,0-2.83,1.061,7.494,7.494,0,0,0-2.161,2.072,9.04,9.04,0,0,0-1.226,3.115,8.183,8.183,0,0,0,.045,3.3,6.327,6.327,0,0,0,1.248,2.736,7.677,7.677,0,0,0,2.272,2.028,8.72,8.72,0,0,0,2.919,1.105,8.157,8.157,0,0,0,3.231.036,7.7,7.7,0,0,0,2.808-1.041,6.723,6.723,0,0,0,2.161-2.1,8,8,0,0,0,1.248-3.081,9.245,9.245,0,0,0,0-3.32,7.57,7.57,0,0,0-1.27-2.739,8.762,8.762,0,0,0-2.251-2.009,8.411,8.411,0,0,0-3.03-1.1,7.174,7.174,0,0,0-1.56-.192Zm-135.664,7.433.183,8.947-.872-.025a2.2,2.2,0,0,1-.109-.323c-.027-.134-.062-.252-.091-.379-.116-.142-.421-.234-1-.278a10.568,10.568,0,0,0-1.988.073,18.068,18.068,0,0,0-2.642.45,16.968,16.968,0,0,0-2.817,1c-.349.143-.88.381-1.544.7a10.789,10.789,0,0,0-1.885,1.259,6.9,6.9,0,0,0-1.47,1.605,1.951,1.951,0,0,0-.083,1.876,1.836,1.836,0,0,0,2.01.909,21.6,21.6,0,0,0,3.565-.782c1.408-.439,2.95-.878,4.53-1.362a20.963,20.963,0,0,1,4.775-.853,9.42,9.42,0,0,1,4.282.717,6.3,6.3,0,0,1,3.133,3.49,8.029,8.029,0,0,1,.805,3.6,7.741,7.741,0,0,1-.9,3.75,10.093,10.093,0,0,1-2.83,3.508,20.48,20.48,0,0,1-5,3.043,35.229,35.229,0,0,1-4.105,1.544,38.408,38.408,0,0,1-3.928,1.023c-1.239.27-2.242.441-3.1.566a9.817,9.817,0,0,0-1.4.261,1.079,1.079,0,0,0-.522.566,4.877,4.877,0,0,0-.314.831l-.717.082-1.38-8.93.84.027c.036.1.065.171.1.269.044.118.089.252.151.406.163.412.684.612,1.553.648a16.393,16.393,0,0,0,3.051-.209,30.807,30.807,0,0,0,3.778-.878,23.54,23.54,0,0,0,3.572-1.328c.332-.154.756-.37,1.31-.667a5.462,5.462,0,0,0,1.489-1.082,4.612,4.612,0,0,0,1.036-1.4,2.179,2.179,0,0,0-.047-1.658,2,2,0,0,0-2.108-1.105,15.638,15.638,0,0,0-3.571.735c-1.447.43-2.917.889-4.53,1.384a19.544,19.544,0,0,1-4.758.9,9.192,9.192,0,0,1-4.24-.609,6.109,6.109,0,0,1-3.068-3.3,8.765,8.765,0,0,1-.708-3.233,9.252,9.252,0,0,1,.717-3.821,12.154,12.154,0,0,1,2.721-3.859,17.012,17.012,0,0,1,5.2-3.4,25.193,25.193,0,0,1,3.752-1.452c1.219-.386,2.375-.711,3.4-.936,1.049-.234,1.949-.43,2.658-.575a12.215,12.215,0,0,0,1.555-.412,1.05,1.05,0,0,0,.591-.6c.109-.252.171-.472.269-.662l.7-.047ZM619.09,280.152l9.693,5.628-.357.653a4.477,4.477,0,0,0-1.181-.383c-.312-.065-.6.095-.846.49l-4.457,7.145,11.119,6.964,4.389-7.115a.842.842,0,0,0,.045-1.027,4.018,4.018,0,0,0-.824-.849l.423-.673,9.247,6.422-.4.675a4.439,4.439,0,0,0-1.137-.406c-.356-.062-.646.109-.891.533l-13.257,21.114a.941.941,0,0,0-.067,1.04,2.912,2.912,0,0,0,.846.845l-.4.657-9.2-6.419.423-.653a3.694,3.694,0,0,0,1.114.414.948.948,0,0,0,.914-.523l5.214-8.374-11.052-6.963-5.258,8.365a1,1,0,0,0-.089,1.014,4.64,4.64,0,0,0,.869.853l-.424.653-9.715-5.535.424-.684a4.816,4.816,0,0,0,1.158.423c.335.054.6-.109.869-.523l13.169-21.232a.908.908,0,0,0,.089-1.014,4.09,4.09,0,0,0-.891-.84l.445-.675Zm-249.065,7.584a8.508,8.508,0,0,1,1.749.027c2.3.287,4.316,1.662,5.967,4.164a7.922,7.922,0,0,1,1.571,5.647,12.723,12.723,0,0,1-2.128,5.321l9.936,4.538a3.074,3.074,0,0,0,1.274.3,2.189,2.189,0,0,0,1.177-.357l.483.635-10.5,6.562-.488-.63a1.879,1.879,0,0,0,.675-.653.6.6,0,0,0,.052-.827,5.875,5.875,0,0,0-1.42-1.032c-.86-.474-7.212-3.95-7.419-4.119l-4.764,3.215,5.009,7.368c.278.386.546.564.878.482a3.187,3.187,0,0,0,1.031-.37l.439.633-8.237,5.991-.422-.644a2.658,2.658,0,0,0,.475-.648.915.915,0,0,0-.163-1l-13.926-20.62c-.287-.4-.539-.583-.853-.53a2.7,2.7,0,0,0-.842.3l-.424-.648,15.455-10.972A11.639,11.639,0,0,1,370.025,287.736Zm-1.06,7a6.36,6.36,0,0,0-2.835,1.227l-6.588,4.5,3.921,5.831,6.963-4.726a4.687,4.687,0,0,0,1.977-2.4,3.238,3.238,0,0,0-.566-2.827,3.616,3.616,0,0,0-2.146-1.549A2.189,2.189,0,0,0,368.965,294.731Zm131.185.57c112.88,0,204.391,91.674,204.391,204.753,0,113.058-91.511,204.725-204.391,204.725S295.774,613.112,295.774,500.054c0-113.079,91.508-204.753,204.376-204.753Zm-16.377,10.392s-1.871.127-3.342.252c-1.537.118-6.751.8-6.751.8-13.191,9.817-25.245,26.978-35.2,50.624a259.676,259.676,0,0,0-8.93,24.911h-56.2c19.724-33.421,47.547-58.842,79.811-71.585l-1.4.261c-1.85.5-7.131,1.99-7.131,1.99a175.369,175.369,0,0,0-18.059,6.4c-23.233,14.871-43.273,36.507-58.331,62.846-.029.029-.031.06-.049.087H344.82l-3.369,4.518h24.24C348.55,418.563,338.3,456.739,337.944,497.8H305.357v4.523h32.569c.3,41.043,10.439,79.212,27.552,111.008h-23.9s3.14,4.3,3.347,4.523h23.012c14.682,25.757,34.074,47.059,56.518,61.943,0,0,8.191,3.364,11.638,4.479,0,0,6.876,2.451,10.871,3.431,1.515.356,3.008.8,3.008.8-31.034-13.168-57.772-38.146-76.861-70.655h56.306a260.364,260.364,0,0,0,9.064,25.334c9.753,23.084,21.429,40,34.308,49.933,0,0,4.055.535,7.263.892l2.63.267c-19.764-10.472-36.988-38.28-48.606-76.426h51.458l-10.183-4.523H432.737q-2.988-10.194-5.356-21.3l-5.054-2.228c1.687,8.155,3.634,15.976,5.789,23.53H370.573c-17.444-31.6-27.809-69.787-28.159-111.008h35.519l-1.7-4.523H342.447c.368-41.221,10.809-79.446,28.38-111.008h57.4q-3.891,13.677-6.827,28.592a20.947,20.947,0,0,1,2.511.769l1.758.735c2.01-10.57,4.425-20.628,7.172-30.1h25.6c.936-1.751,2.629-4.518,2.629-4.518H434.181c11.869-38.644,29.405-66.6,49.592-76.585Zm33.2,0c20.187,9.989,37.723,37.933,49.6,76.585h-8.355a24.8,24.8,0,0,1,1.069,4.518h8.623c2.741,9.423,5.147,19.437,7.2,29.954,0,0,2.139-.88,3.342-1.259l.914-.312q-2.942-14.809-6.841-28.383h57.465c17.491,31.562,27.941,69.787,28.365,111.008h-34l-1.694,4.523h35.7c-.335,41.221-10.74,79.412-28.164,111.008H572.633c2.183-7.6,4.122-15.442,5.815-23.641l-5.013,2.25c-1.627,7.42-3.454,14.572-5.392,21.391H525.2l-10.138,4.523h51.649C555.1,655.893,537.94,683.611,518.243,694.2c0,0,4.835-.557,6.217-.691,1.359-.111,3.654-.49,3.654-.49,12.79-9.938,24.421-26.805,34.113-49.822a254.873,254.873,0,0,0,9.091-25.334h56.306c-18.85,32.108-45.12,56.885-75.669,70.165,0,0,8.4-2.34,13.592-4.256,0,0,8.2-3.075,10.183-4.055l1.716-.646c21.97-14.907,40.931-35.9,55.348-61.208h22.281c.78-.936,3.365-4.523,3.365-4.523H635.289c17.112-31.8,27.228-69.965,27.585-111.008h31.774L694.6,497.8H662.852c-.424-41.065-10.562-79.241-27.764-111.008h23.463l-3.364-4.518H632.571c-14.84-25.9-34.426-47.284-57.131-62.12,0,0-1.515-.579-2.362-.982-.935-.468-7.286-2.821-7.286-2.821-6.194-2.279-17.223-5.256-17.223-5.256,31.84,12.841,59.291,38.081,78.81,71.179H571.207a253.554,253.554,0,0,0-8.98-24.911c-9.893-23.53-21.813-40.615-34.96-50.46,0,0-2.094-.325-3.453-.512C522.477,306.232,516.973,305.693,516.973,305.693ZM338.552,307.4l5.949,6.406-.521.5c-.412-.484-.831-.736-1.11-.7a1.169,1.169,0,0,0-.757.278l-12.583,11.8,3.61,3.882,8.093-7.607a.956.956,0,0,0,.345-.693c.054-.315-.136-.673-.548-1.13l.5-.484,5.771,6.192-.544.475a1.388,1.388,0,0,0-1.036-.626,1.1,1.1,0,0,0-.735.256l-8.113,7.594,4.345,4.692L353.5,326.765c.584-.539.588-1.263.031-2.206l.5-.5,5.695,6.1-.457.4a1.584,1.584,0,0,0-1.156-.329,3.239,3.239,0,0,0-.854.608l-19.053,18.282-.492-.557a3.114,3.114,0,0,0,.628-.987c.178-.323.082-.637-.2-1l-16.874-18.153a.883.883,0,0,0-1-.325,5.758,5.758,0,0,0-1.041.613l-.53-.575,19.5-18.47a1.131,1.131,0,0,0,.361-.672c.089-.288-.145-.656-.539-1.077Zm324.288,3.077,9.047,8.255-.49.582c-.446-.305-.758-.321-1-.025q-.1.147-.735,1.723c-.357,1.014-8.156,24.632-8.557,25.78a.726.726,0,0,0,0,.675,1.586,1.586,0,0,0,.446.593l-.512.566-7.108-7.151.512-.583c.089.053.245.14.379.238.178.1.356.038.579-.187a2.92,2.92,0,0,0,.4-.751c.134-.361,1.181-3.581,1.315-3.9l-10.25-9.149c-.245.19-3.141,1.571-3.5,1.74a1.926,1.926,0,0,0-.713.462c-.2.225-.245.423-.111.583a1.658,1.658,0,0,0,.312.366l-.535.566-7-5.735.513-.584a1.776,1.776,0,0,0,.646.343.87.87,0,0,0,.691-.056c2.874-1.461,21.234-10.6,22.816-11.384a11.4,11.4,0,0,0,2.451-1.383c.268-.279.223-.631-.111-1l.512-.582Zm-.267,9.169-11.163,5.287,7.331,6.533Zm21.836,11.845,6.707,7.712-.6.465a3.191,3.191,0,0,0-.824-.717.894.894,0,0,0-1.047.151c-.156.1-10.049,13.289-10.317,13.639l.045.076c.423-.216,14.26-4.876,15.018-5.163a6.145,6.145,0,0,0,1.448-.671.934.934,0,0,0,.423-1,2.782,2.782,0,0,0-.468-.969l.58-.5,7.241,9.479-.6.483a2.286,2.286,0,0,0-.869-.753.9.9,0,0,0-1.048.161,7.317,7.317,0,0,0-.846,1.123c-.468.682-8.8,13.093-9,13.333l.089.118c.423-.225,15.4-6.2,15.642-6.361a1.013,1.013,0,0,0,.423-.989,2.707,2.707,0,0,0-.535-1.048l.624-.483,5.3,8.068-.646.483a1.362,1.362,0,0,0-1.136-.5c-.334.071-.713.191-1.226.352-.379.153-22.838,8.777-22.972,8.848a1.489,1.489,0,0,0-.089,2.019l-.624.474L677.97,369.1l.624-.488c.757.844,1.381,1.114,1.738.871a7.436,7.436,0,0,0,.98-1.219c.468-.655,7.063-10.365,7.6-11.109.512-.745.891-1.268,1.114-1.538l-.067-.087c-.334.136-.913.379-1.738.693-.913.314-11.943,4.1-12.7,4.37a6.589,6.589,0,0,0-1.382.644c-.223.133-.267.378-.178.684a4.462,4.462,0,0,0,.468,1.047l-.624.457-7.932-9.43.646-.457a1.564,1.564,0,0,0,1.916.5c.156-.1,15.085-20.621,15.241-20.809a.934.934,0,0,0,.312-.71,1.162,1.162,0,0,0-.2-.544l.624-.479Zm-371.525,2.963.63.506a1.45,1.45,0,0,0-.3.762,1.135,1.135,0,0,0,.247.769c.3.379,12.144,19.788,12.817,20.811a11.518,11.518,0,0,0,1.219,1.716.983.983,0,0,0,.9.182,1.319,1.319,0,0,0,.737-.5l.591.448L322.048,369l-.63-.483a1.2,1.2,0,0,0,.343-.8.977.977,0,0,0-.388-.835c-.036-.018-.807-.361-2.072-.827-1.192-.494-19.67-7.324-20.927-7.781a7.766,7.766,0,0,0-2.21-.565,1.044,1.044,0,0,0-.562.251,1.991,1.991,0,0,0-.319.361l-.626-.494,6.507-8.967.608.475a8.757,8.757,0,0,0-.508.767.524.524,0,0,0,.109.8,8.38,8.38,0,0,0,1.234.53c.738.306,14.871,5.41,15.168,5.537l.064-.087c-.8-1.265-7.386-12.172-8.077-13.3a12.61,12.61,0,0,0-1.2-1.836.562.562,0,0,0-.787.051,2.44,2.44,0,0,0-.532.62l-.644-.484,6.29-7.469Zm232.509,8.626c-22.9,5.447-27.384,19.249-34.113,20.577-5.347,1.058-3.877-11.863-3.877-11.863s-32.442,16.591-43.694,42.779c-9.626,22.64-.78,35.24-.78,35.24l11.9.009c-1.158-37.745,25.223-52.175,42.937-61.867,3.944-2.161,7.71-4.191,10.562-6.165l6.194-4.328-1.2,7.46a55.24,55.24,0,0,0,.379,17.87,44.631,44.631,0,0,0,2.295,6.937c2.072,5.276,4.233,10.73,1.782,19.857-2.117,7.736-8.556,15.4-13.347,20.254h8.6s8.957-3.679,16.021-19.528c7.063-20.325.044-28.645-4.39-42.186-4.367-10.519.735-25.046.735-25.046Zm-255.3,21.608.652.4a6.061,6.061,0,0,0-.492,1.31.932.932,0,0,0,.51.922l21.29,12.926a.872.872,0,0,0,1.039.027,5.005,5.005,0,0,0,.953-1.059l.644.415-6.1,10.022-.693-.388a4.824,4.824,0,0,0,.505-1.345.841.841,0,0,0-.505-.887l-21.284-12.953c-.441-.231-.773-.249-1.032-.033a3.715,3.715,0,0,0-.918,1.041l-.7-.384Zm236.3,5.818c-1.76,1.005-3.676,2.052-5.57,3.1-16.89,9.225-39.617,21.629-39.617,53.837,0,.789.044,1.582.067,2.389l33.779.018c1.671-1.429,13.859-12.061,16.51-21.952a21.163,21.163,0,0,0,.914-6c0-3.67-1.136-6.516-2.451-9.818a45.429,45.429,0,0,1-3.654-19.166C526.365,372.059,526.365,371.259,526.387,370.506ZM719.748,381.4l5.57,10.922-.646.348c-.312-.412-.624-.557-.958-.37a10.427,10.427,0,0,0-1.248,1.368c-.713.842-16.4,20.174-17.179,21.063a.809.809,0,0,0-.223.635,1.812,1.812,0,0,0,.178.717l-.69.348-4.078-9.22v0l.646-.374a2.177,2.177,0,0,0,.29.383c.111.161.312.165.6.029a2.522,2.522,0,0,0,.6-.548c.268-.3,2.429-2.934,2.674-3.177l-6.373-12.2c-.311.072-3.542.33-3.9.375a1.985,1.985,0,0,0-.8.16c-.312.145-.379.334-.334.521a1.472,1.472,0,0,0,.134.442l-.691.365-4.479-7.877.691-.349a1.63,1.63,0,0,0,.468.561.947.947,0,0,0,.646.183c3.231-.35,23.663-2.371,25.4-2.54a16.127,16.127,0,0,0,2.808-.415c.334-.178.378-.5.2-1Zm-441.134,3.088.671.305a4.31,4.31,0,0,0-.232,1.219.876.876,0,0,0,.626.8l22.779,10.1a.843.843,0,0,0,1.014-.047,2.881,2.881,0,0,0,.726-.974l.736.294-4.891,9.8-.744-.31a5.128,5.128,0,0,0,.347-1.058.666.666,0,0,0-.408-.842,4.822,4.822,0,0,0-2.46.3c-1.345.35-3.019.844-4.946,1.437-1.976.619-4.245,1.312-6.693,2.05-2.407.78-4.992,1.5-7.612,2.123l.083.179,15.579,6.927a1.031,1.031,0,0,0,1.032-.042,4.253,4.253,0,0,0,.675-.889l.726.323-3.665,9.478-.736-.345a3.781,3.781,0,0,0,.21-1.056c0-.314-.236-.555-.666-.762L268,413.376a.86.86,0,0,0-1.032.063,4.032,4.032,0,0,0-.668.933l-.729-.325,5.241-13.1.691.324a3.81,3.81,0,0,0-.083.877.918.918,0,0,0,.8.854,5.282,5.282,0,0,0,1.649-.37c.987-.243,2.226-.608,3.777-1.067,1.491-.448,3.186-.914,5.053-1.489,1.9-.546,3.69-1.114,5.557-1.662l-11.845-5.274a1.012,1.012,0,0,0-1.053.062,5.153,5.153,0,0,0-.671.979l-.727-.306Zm437.7,5.392-12.366.958,4.546,8.735,7.82-9.693Zm16.89,20.929,3.944,11.072-.735.27a3.758,3.758,0,0,0-.691-1.232.859.859,0,0,0-1.047-.17L711.3,429.23c-.468.171-.691.452-.691.8a4.647,4.647,0,0,0,.223,1.388l-.735.27-3.922-11.077.758-.278a4.211,4.211,0,0,0,.713,1.25.837.837,0,0,0,1,.151l23.418-8.489a.854.854,0,0,0,.668-.771,5.973,5.973,0,0,0-.245-1.419l.713-.248Zm-312.145,12.8,7.694,20.386c12,7.776,32.322,25.222,43.04,36.3C445.859,434.994,426.382,425.043,421.061,423.608Zm158.533,0c-5.3,1.435-24.778,11.386-50.758,56.682,10.74-11.074,31.083-28.52,43.137-36.3ZM261.7,425.636l.736.187a6.565,6.565,0,0,0-.043,1.219.916.916,0,0,0,.745.739l13.52,3.338a16.858,16.858,0,0,1,4.661,1.867,11.286,11.286,0,0,1,3.374,3.2,11.13,11.13,0,0,1,1.526,4.791,20.367,20.367,0,0,1-.613,6.6,19.686,19.686,0,0,1-2.468,6.172,10.325,10.325,0,0,1-3.635,3.5,9.581,9.581,0,0,1-4.42,1.292,16.508,16.508,0,0,1-4.965-.467l-13.536-3.32c-.456-.09-.8-.023-.987.289a4.441,4.441,0,0,0-.552,1.092l-.74-.178,2.028-10.45.8.178a1.5,1.5,0,0,0,.092.668c.082.29.365.491.831.58l15.412,3.788a3.872,3.872,0,0,0,3.842-.758,7.475,7.475,0,0,0,2.009-3.922,7.639,7.639,0,0,0-.015-4.418,3.992,3.992,0,0,0-3.017-2.451l-15.4-3.75a1.011,1.011,0,0,0-.987.143,2.831,2.831,0,0,0-.41.548l-.718-.179Zm474.579,4.6a8.66,8.66,0,0,1,1.894.078,10.975,10.975,0,0,1,3.5,1.166,12.248,12.248,0,0,1,2.941,2.181A21.473,21.473,0,0,1,747,436.4l-1.894.5a10.813,10.813,0,0,0-2.785-2.477,5.744,5.744,0,0,0-3.743-.842,6.282,6.282,0,0,1-.089,3.85,4.228,4.228,0,0,1-3.12,2.451,4.182,4.182,0,0,1-3.543-.406,4.653,4.653,0,0,1-2.049-2.745,3.888,3.888,0,0,1,.757-3.895,7.845,7.845,0,0,1,3.721-2.255,9.965,9.965,0,0,1,2.028-.352Zm-277.14,4.548a3.409,3.409,0,0,0,0,6.818H541.47a3.409,3.409,0,1,0,0-6.818Zm-67.492.53,10.014,26.353,73.075,31.373C432.387,450.745,404.811,437.732,391.647,435.31Zm217.336,0c-13.124,2.422-40.708,15.435-83.066,57.726L599,461.663Zm134.381,8.862,2.362,11.5-.78.134a4.621,4.621,0,0,0-.534-1.27.812.812,0,0,0-1-.29l-24.332,5.1c-.49.089-.757.334-.8.69a3.864,3.864,0,0,0,.022,1.426l-.757.156L715.178,450.1l.78-.156a9.937,9.937,0,0,0,.49,1.314.876.876,0,0,0,1,.312l24.376-5.169a.9.9,0,0,0,.824-.669,5.448,5.448,0,0,0-.089-1.4ZM463.4,446.6c3.832,9.069,16.51,21.19,36.92,21.19,20.477,0,32.576-12.121,37.211-21.19Zm-94.043,10.54c3.427,9.068,45.081,119.118,45.691,120.789l72.371,32.13,1.649-28.32a.507.507,0,0,1,.468-.49.536.536,0,0,1,.535.49l2.7,30.7h.022l2.562,29.3a4.991,4.991,0,0,0,4.969,4.746,4.926,4.926,0,0,0,4.969-4.724l2.629-29.323,2.674-30.7a.515.515,0,0,1,.513-.49.531.531,0,0,1,.512.49l1.649,28.32,72.393-32.13c.624-1.671,42.224-111.721,45.633-120.789L517.361,504.511l3.164-35.941a47.639,47.639,0,0,1-16.088,3.966l-3.23,59.381a.874.874,0,0,1-1.738,0l-3.231-59.381a48.44,48.44,0,0,1-16.088-3.9l3.142,35.874L369.352,457.14Zm225.87,54.924c.557,4.345,1.4,15.954,1.716,17.982l-4.3,4.233c0-1.2-.133-4.924-.222-5.325l-7,3.231c-.4.757-2.763,5.035-3.7,6.528l-2.206-1.381c1.538-2.63,12.991-21.235,15.553-25.2l.156-.067Zm-190.68.268.134.044c1.481,2.362,7.988,13.28,9.414,15.464.124-1.382.63-9.114.8-11.386l.163.044c1.633,3.008,11.729,22.817,12.563,24.287h0l-2.6.513c-.771-1.538-6.306-13.013-7.184-14.639h-.018c0,1.136-.325,6.662-.639,9.715l-.127-.067c-2.155-3.343-7.779-12.367-8.552-13.614,0,.735.784,10.071.945,12.344l-3.969-3.521c-.053-2.161-.86-15.753-.922-19.184Zm22.856,5.236,9.279,3.877.978,4.011-9.37-3.922-.887-3.966Zm149.843,2.584c.156,3.276.334,16.556.4,18.628l-3.788,3.476c0-2.184.134-11.275.111-11.988-.735,1.181-5.86,10.049-7.91,13.325l-.089.044c-.535-2.919-1.248-8.311-1.292-9.425h-.045c-.78,1.6-5.682,12.834-6.372,14.327l-2.674-.468c.668-1.448,9.782-21.167,11.208-24.108l.178-.067c.334,2.228,1.359,10.071,1.537,11.43,1.27-2.116,7.264-12.879,8.6-15.129l.134-.045Zm15.129.045c-.824,1.359-3.766,6.462-4.59,7.843l4.679-2.161c0-1.181-.089-4.858-.089-5.682Zm-159.31,5.392.152.067c2.163,3.454,11.675,19.675,13.079,21.925l-2.569,1.27c-.738-1.381-2.667-5.08-3.008-5.726l-6.9-2.785c-.091.334-.7,3.565-.911,4.634l-3.886-3.721C429.586,539.538,431.928,529.377,433.06,525.589Zm12.228,3.766,4.345,1.827c.089.668,1.092,6.551,1.783,10.272l1.314,6.929c.6.246,2.028.981,4.056,1.761l.824,4.255c-.512-.222-7-3.386-8.4-3.966-.156-1.493-1.4-8.155-1.56-8.846l-.735-3.921c-.045-.446-1.493-7.71-1.627-8.311Zm103.454,1.626c1.4,3.967,4.457,14.684,5.192,16.511l-3.766,4.055c-.312-1.136-1.114-4.545-1.27-4.924l-6.952,3.186c-.289.691-2.116,4.724-2.852,6.15l-2.651-1.27c1.248-2.384,10.116-19.964,12.166-23.663l.133-.045ZM435,532.652c-.127.736-.675,3.967-.845,4.947l4.657,1.961C438.12,538.312,435.674,533.923,435,532.652ZM278.862,536.2l1.277,7.2-.6.134a2.156,2.156,0,0,0-.279-.423c-.124-.134-.367-.156-.708-.09l-11.972,2.541a3.167,3.167,0,0,0-2.5,1.648,4.625,4.625,0,0,0-.249,3.031,4.852,4.852,0,0,0,1.479,2.7,3.141,3.141,0,0,0,2.881.512l12.008-2.518c.376-.089.559-.2.639-.4a1.307,1.307,0,0,0,.123-.467l.584-.112,1.74,7.063-.626.112a2.5,2.5,0,0,0-.332-.758c-.152-.223-.386-.267-.754-.2l-11.082,2.362a15.317,15.317,0,0,1-3.835.289,8.235,8.235,0,0,1-3.4-.891,6.756,6.756,0,0,1-2.62-2.406,13.612,13.612,0,0,1-1.654-4.256,13.3,13.3,0,0,1-.171-4.546,7.22,7.22,0,0,1,1.41-3.253,8.666,8.666,0,0,1,2.747-2.228,18.026,18.026,0,0,1,3.626-1.248l11.045-2.384c.376-.045.61-.2.639-.446a2.5,2.5,0,0,0,.034-.846Zm185.767.379.156.045c1.938,3.832,10.428,21.68,11.631,24.175l-2.607,1.226c-.691-1.493-2.406-5.593-2.7-6.261l-6.863-3.3c-.156.334-.958,3.788-1.292,4.924l-3.677-4.122c.713-1.872,3.922-12.656,5.348-16.689Zm265.041.8a13.521,13.521,0,0,1,2.763.29,11.684,11.684,0,0,1,4.835,1.983,9.31,9.31,0,0,1,2.941,3.142,10.157,10.157,0,0,1,1.27,3.788,13.6,13.6,0,0,1-.156,3.832,13.217,13.217,0,0,1-1.337,3.632,9.359,9.359,0,0,1-2.607,3.008,10.457,10.457,0,0,1-3.966,1.8,12.256,12.256,0,0,1-5.236-.067,13,13,0,0,1-4.813-1.961,10.525,10.525,0,0,1-2.985-3.164,10.317,10.317,0,0,1-1.36-3.81,14.028,14.028,0,0,1,.112-3.877,11.568,11.568,0,0,1,1.448-3.61,9.564,9.564,0,0,1,2.629-2.985,10.12,10.12,0,0,1,3.966-1.783,11.46,11.46,0,0,1,2.5-.223Zm-182.465,1.137c-.646,1.336-2.9,6.082-3.5,7.419l4.7-2.116C548.185,542.724,547.361,539.315,547.205,538.513Zm-14.906.4c-.112.69-1.092,6.751-1.627,10.45l-.958,6.684c.512-.223,3.03-1.2,4.857-2.072l-.624,4.278c-.445.2-7.241,2.652-8.489,3.142.312-1.6,1.27-7.932,1.382-8.668l.557-3.944c.044-.49,1.091-7.8,1.114-8.333Zm-18.539,3.008h.178c2.5,4.946,8,17.045,9.247,19.318l-3.542,2.741c-.6-1.337-1.828-4.635-2.05-5.081l-7.554.446c-.223.6-1.47,4.167-1.983,5.392l-3.409-2.5C505.583,560.193,512.223,545.108,513.76,541.922Zm-30.013.579h.2c1.137,2.518,5.036,10.918,5.7,12.455.892-1.738,4.858-10.227,5.749-12.1h.2c1.292,3.588,5.86,17.425,6.573,19.7l-3.632,2c-.691-2.317-3.476-11.854-3.766-12.634-.49.958-4.011,8.133-5.437,10.718h-.133c-1.649-3.32-4.278-9.336-4.769-10.54h-.044c-.379,1.4-2.808,10.406-3.186,11.7l-3.231-2.25C478.354,560.326,482.922,545.019,483.747,542.5Zm246.324.156a5.236,5.236,0,0,0-1.2.067,5.622,5.622,0,0,0-2.139.8,5.077,5.077,0,0,0-1.515,1.493,5.786,5.786,0,0,0-.825,2,4.533,4.533,0,0,0,0,2.184,6.719,6.719,0,0,0,.825,1.983,5.233,5.233,0,0,0,1.6,1.515,7.18,7.18,0,0,0,2.429.936,7.57,7.57,0,0,0,2.54.067,5.15,5.15,0,0,0,2.072-.78,4.752,4.752,0,0,0,1.537-1.515,4.658,4.658,0,0,0,.869-1.983,6.1,6.1,0,0,0,0-2.206,5.674,5.674,0,0,0-2.473-3.476,5.675,5.675,0,0,0-2.384-.914,7.378,7.378,0,0,0-1.337-.178Zm-264.038,1.582c-.134.78-.981,4.256-1.226,5.325l4.59,2.228C468.8,550.456,466.679,545.6,466.033,544.239Zm47.727,5.192c-.468,1.136-2.05,5.325-2.5,6.506l5.08-.312C515.832,554.377,514.072,550.322,513.76,549.431Zm202.719,8.957.58.2a2.538,2.538,0,0,0-.045.8c.022.222.223.4.579.512l18.2,5.86c.357.134.58.089.713-.089a1.848,1.848,0,0,0,.446-.691l.6.156-2.139,7.175-.557-.134a1.879,1.879,0,0,0,.156-.735.52.52,0,0,0-.379-.6,4.1,4.1,0,0,0-1.894.335c-.936.289-2.206.735-3.587,1.2-1.493.535-8.445,2.986-10.361,3.52l.044.112,12.522,4.055c.357.111.624.111.758-.067a1.385,1.385,0,0,0,.423-.668l.58.223-2.3,6.484-.557-.2a4.093,4.093,0,0,0,0-.735c-.045-.2-.223-.4-.6-.513l-18.2-5.86c-.334-.089-.6-.089-.758.067a3.822,3.822,0,0,0-.4.691l-.6-.179,3.23-9.068.557.156a3.106,3.106,0,0,0,.023.646.6.6,0,0,0,.6.446,3.613,3.613,0,0,0,1.137-.29c.757-.245,9.135-3.12,10.472-3.587l-9.4-3.053a.69.69,0,0,0-.78.089,1.954,1.954,0,0,0-.445.713l-.557-.223,1.938-6.751Zm-453.433,6.306a.889.889,0,0,0,.27.423.531.531,0,0,0,.421.2c2.513.044,17.364.467,18.665.512a15.708,15.708,0,0,0,2.22-.045c.263-.089.356-.289.274-.668l.548-.134,2.6,7.977-.584.178c-.145-.312-.35-.423-.626-.334a8.528,8.528,0,0,0-1.132.825c-.646.49-14.559,11.675-15.268,12.255a.768.768,0,0,0-.278.378.668.668,0,0,0,.065.513l-.609.2-2.2-6.239.548-.156a.824.824,0,0,0,.143.246c.082.133.216.178.456.089a3.62,3.62,0,0,0,.557-.335c.208-.178,2.075-1.671,2.282-1.782l-2.89-8.935c-.314,0-2.567-.067-2.9-.089a2.652,2.652,0,0,0-.626.022c-.207.089-.334.178-.334.312a.512.512,0,0,0,.1.312l-.608.223-1.671-5.771.583-.178Zm9.269,5.28,2.093,6.373,7.35-5.972-9.443-.4Zm442.047,14.3a14.457,14.457,0,0,1,9.47,4.122,10.231,10.231,0,0,1,2.184,3.7,9.7,9.7,0,0,1,.445,3.966,11.768,11.768,0,0,1-1.025,3.721,12.337,12.337,0,0,1-2,3.276,9.834,9.834,0,0,1-3.186,2.362,10.207,10.207,0,0,1-4.167.935,14.6,14.6,0,0,1-9.514-4.122,11.032,11.032,0,0,1-2.251-3.721,10.022,10.022,0,0,1-.467-3.988,12.431,12.431,0,0,1,.913-3.766,11.581,11.581,0,0,1,2.117-3.231,10.7,10.7,0,0,1,3.231-2.361,10.524,10.524,0,0,1,4.255-.892Zm.558,5.348a5.773,5.773,0,0,0-2.184.334,6.192,6.192,0,0,0-1.872,1.136,6.821,6.821,0,0,0-1.247,1.805,5.993,5.993,0,0,0-.023,4.256,6.2,6.2,0,0,0,1.248,1.827A7.51,7.51,0,0,0,713,600.367a7.282,7.282,0,0,0,2.474.6,5.75,5.75,0,0,0,2.183-.312,6.2,6.2,0,0,0,1.85-1.114,6.124,6.124,0,0,0,1.247-1.782,5.973,5.973,0,0,0,.446-2.184,4.864,4.864,0,0,0-.423-2.072,4.7,4.7,0,0,0-1.248-1.85,7.573,7.573,0,0,0-2.139-1.4A6.959,6.959,0,0,0,714.92,589.627Zm-419.1,2.919,3.79,7.977-.524.289c-.142-.156-.232-.334-.312-.423a.288.288,0,0,0-.379-.089c-.089.089-.465.423-1.067,1.092-.608.623-4.862,5.436-5.06,5.659.862-.089,7.177-.535,7.85-.624a3.084,3.084,0,0,0,1.241-.245.326.326,0,0,0,.2-.334,3.027,3.027,0,0,0-.2-.513l.557-.289,4.369,7.8-.53.268a1.821,1.821,0,0,0-.457-.357c-.171-.156-.385-.111-.735.045l-17.034,8.779a.758.758,0,0,0-.493.579,2,2,0,0,0,.1.579l-.5.268-3.278-5.86.531-.29a2.1,2.1,0,0,0,.519.557.676.676,0,0,0,.735-.022l12.917-6.685-.036-.067-15.653,1.337,10.239-11.854-.043-.066-12.916,6.617c-.341.2-.484.4-.484.646a2.8,2.8,0,0,0,.187.825l-.543.267-2.659-5.748.54-.29a5.081,5.081,0,0,0,.447.468.7.7,0,0,0,.771-.045l16.99-8.779c.314-.133.482-.334.482-.557a1.753,1.753,0,0,0-.087-.668l.528-.245Zm407,12.1a8.229,8.229,0,0,1,3.453,1.27,9.319,9.319,0,0,1,2.741,2.406,6.064,6.064,0,0,1,1.025,2.629,5.929,5.929,0,0,1-.29,2.63,14.806,14.806,0,0,1-1.2,2.651l-2.34,3.922,5.326,3.208c.356.179.624.223.78.089a1.965,1.965,0,0,0,.534-.445l.491.356-3.588,5.927-.512-.312a1.6,1.6,0,0,0,.044-.423c0-.178-.156-.4-.534-.579l-16.378-9.827a.851.851,0,0,0-.779-.156c-.156.134-.29.2-.357.268l-.49-.312,5.392-9.113a14.745,14.745,0,0,1,1.76-2.318,6.443,6.443,0,0,1,2.206-1.559A6.273,6.273,0,0,1,702.821,604.645Zm-1.048,5.147a1.849,1.849,0,0,0-.49.044,2.976,2.976,0,0,0-1.716,1.515l-2.116,3.566,5.1,3.052,2.006-3.3a3.7,3.7,0,0,0,.668-2.428,3.08,3.08,0,0,0-1.6-1.783,3.913,3.913,0,0,0-1.85-.668Zm-390.866,10.74,4.684,7.018-.483.312a.489.489,0,0,0-.718-.156,8.051,8.051,0,0,0-.853,1.092c-.522.669-10.889,15.218-11.455,15.931a.5.5,0,0,0-.105.468,1.57,1.57,0,0,0,.127.491l-.479.356-3.8-5.437.5-.334a.789.789,0,0,0,.218.268c.1.066.214.066.421-.067.125-.045.234-.223.439-.468.172-.245,1.553-2.139,1.7-2.318l-5.2-7.8c-.252.089-2.453.646-2.767.691a2.092,2.092,0,0,0-.593.178c-.187.134-.283.29-.247.4a1.628,1.628,0,0,1,.1.312l-.423.312-3.2-5.058.488-.357a1.612,1.612,0,0,0,.39.357.662.662,0,0,0,.506.044c2.386-.623,16.8-4.233,18.055-4.567,1.221-.335,1.956-.557,2.081-.624a.513.513,0,0,0,.127-.736l.494-.311Zm-2.092,6.238-9.191,2.14,3.717,5.592Zm11.3,7.064,4.461,5.748-.483.4a.783.783,0,0,0-.439-.222c-.181-.067-.412.044-.709.267l-9.5,7.843a3.143,3.143,0,0,0-1.406,2.563,4.886,4.886,0,0,0,1.21,2.807,4.7,4.7,0,0,0,2.493,1.716,3.182,3.182,0,0,0,2.812-.869l9.483-7.8c.288-.2.415-.445.379-.624a1.729,1.729,0,0,0-.109-.49l.465-.379,4.773,5.459-.472.4a2.226,2.226,0,0,0-.638-.512.767.767,0,0,0-.808.156l-8.748,7.264a16.3,16.3,0,0,1-3.233,2.027,8.534,8.534,0,0,1-3.416.736,7.768,7.768,0,0,1-3.456-.914,11.268,11.268,0,0,1-3.376-3.008,12.165,12.165,0,0,1-2.308-3.944,7.033,7.033,0,0,1-.247-3.543,7.857,7.857,0,0,1,1.437-3.208,13.052,13.052,0,0,1,2.6-2.785l8.791-7.22a.8.8,0,0,0,.334-.757,5.3,5.3,0,0,0-.361-.758l.465-.356Zm358.558,1.738.468.4a.5.5,0,0,0,.089.713c.067.044.579.245,1.337.535.847.245,17.692,5.57,18.605,5.882a.5.5,0,0,0,.468-.022.94.94,0,0,0,.4-.312l.513.379-3.922,5.325-.535-.379a1.87,1.87,0,0,0,.178-.223c.09-.156,0-.267-.2-.468-.089-.044-.29-.156-.557-.267s-2.451-.78-2.7-.847l-5.793,7.331c.178.223,1.381,2.161,1.559,2.406a3.021,3.021,0,0,0,.357.535c.2.134.356.156.445.067a.685.685,0,0,0,.268-.223l.445.357L686.25,661.4l-.468-.4a.91.91,0,0,0,.2-.445.581.581,0,0,0-.111-.513c-1.337-2.072-9.2-14.639-9.916-15.753-.69-1.07-1.114-1.738-1.225-1.85a.538.538,0,0,0-.735.112l-.491-.357,5.17-6.617Zm1.448,6.751,4.88,8.022,4.144-5.3Zm-11.5,5.571.468.423a3.748,3.748,0,0,0-.334,1.894c.022.869.044,1.894.133,2.986.089,1.114.535,5.548.557,6.283l13.28,3.7a1.851,1.851,0,0,0,.758.044.907.907,0,0,0,.49-.222l.423.423-5.5,6.061-.424-.446a4.251,4.251,0,0,0,.4-.646.756.756,0,0,0-.222-.78,3.864,3.864,0,0,0-.736-.29c-.379-.133-8.066-2.317-8.355-2.406l.69,5.481,2.942,2.852c.289.268.512.334.757.223a1.994,1.994,0,0,0,.691-.423l.423.423-5.414,5.281-.424-.424a.774.774,0,0,0,.29-.579.749.749,0,0,0-.267-.758l-13.726-13.3c-.267-.267-.535-.378-.757-.289a.8.8,0,0,0-.557.423l-.424-.468,5.326-5.258.445.4c-.134.245-.29.49-.4.735-.089.245,0,.468.267.713l6.685,6.439c-.067-.579-.557-8.935-.6-9.692-.089-.735-.156-1.315-.222-1.76a3.347,3.347,0,0,0-.246-.847.814.814,0,0,0-.757-.2,2.838,2.838,0,0,0-.579.335l-.468-.4,5.392-5.926ZM519.939,659.725v4.991h.334a.685.685,0,0,1,.2-.557.621.621,0,0,1,.378-.111h9.715l-6.662,11.185a2.173,2.173,0,0,1-.446.535.865.865,0,0,1-.557.245v.357h6.685v-.357a3.778,3.778,0,0,1-.468-.111.4.4,0,0,1-.245-.424,1.342,1.342,0,0,1,.2-.534,4.209,4.209,0,0,0,.424-.669l5.815-10.651V659.77h-.379a.678.678,0,0,1-.2.557.452.452,0,0,1-.357.133H520.852a.529.529,0,0,1-.378-.133.8.8,0,0,1-.2-.6Zm-30.459.557a11.2,11.2,0,0,0-2.5.268,9.2,9.2,0,0,0-2.272.935,5.912,5.912,0,0,0-1.783,1.627,4.917,4.917,0,0,0-.646,2.473,5.275,5.275,0,0,0,.445,2.206,6.193,6.193,0,0,0,1.293,1.693,6.531,6.531,0,0,0,1.916,1.07,7.019,7.019,0,0,0,2.25.379,9.41,9.41,0,0,0,2.808-.4,23.315,23.315,0,0,0,2.874-1.181,4.409,4.409,0,0,1-.557,1.849,3.843,3.843,0,0,1-1.225,1.315,5.628,5.628,0,0,1-1.582.824,7.4,7.4,0,0,1-1.85.245,10.221,10.221,0,0,1-1.426-.111,4.121,4.121,0,0,1-1.247-.267,2.155,2.155,0,0,1-.869-.468.766.766,0,0,1-.335-.669v-.29l-.334-.133-2.384,4.077.379.134a.894.894,0,0,1,.69-.334,1.731,1.731,0,0,1,.491.156,8.106,8.106,0,0,0,1.181.334,10.622,10.622,0,0,0,1.693.29,13.188,13.188,0,0,0,2.161.156,11.494,11.494,0,0,0,3.5-.535,8.046,8.046,0,0,0,2.963-1.582,7.039,7.039,0,0,0,2.028-2.652,7.824,7.824,0,0,0,.757-3.542,8.789,8.789,0,0,0-.624-3.476,6.1,6.1,0,0,0-1.715-2.429,6.43,6.43,0,0,0-2.585-1.471,12.286,12.286,0,0,0-3.5-.49Zm-17.469.178v.379a.812.812,0,0,1,.4.089c.156.067.2.223.2.446v.958c-.045.022-.179.067-.357.156-.223.067-.4.156-.624.245a5.85,5.85,0,0,0-.6.223c-.2.045-.312.089-.357.089q-.234,0-.267-.267a2.346,2.346,0,0,1-.067-.446h-.379v4.857h.379a1.591,1.591,0,0,1,.089-.49.635.635,0,0,1,.29-.312,2.411,2.411,0,0,1,.735-.223c.267-.111.646-.178,1.159-.334v9.626a.418.418,0,0,1-.2.423,2.685,2.685,0,0,1-.535.134v.334h6.039v-.334a3.461,3.461,0,0,1-.513-.134.418.418,0,0,1-.2-.423V661.374a.456.456,0,0,1,.2-.446,1.5,1.5,0,0,1,.579-.089v-.379Zm37.3.335a7.9,7.9,0,0,0-3.187.623,8.206,8.206,0,0,0-2.629,1.694,8.109,8.109,0,0,0-2.429,5.793,8.046,8.046,0,0,0,.669,3.276,8.344,8.344,0,0,0,1.76,2.562,8.083,8.083,0,0,0,2.629,1.649,8.286,8.286,0,0,0,3.187.6,8.464,8.464,0,0,0,3.141-.6,8.077,8.077,0,0,0,2.63-1.649,8.836,8.836,0,0,0,1.782-2.562,8.019,8.019,0,0,0,.624-3.276,7.807,7.807,0,0,0-.624-3.231,8.046,8.046,0,0,0-4.412-4.256A8.067,8.067,0,0,0,509.311,660.8Zm-164.145,1.448,5.51,5.08-.361.468a3.061,3.061,0,0,0-.753-.334c-.234-.089-.484,0-.727.29l-6.085,7.018c.611-.067,8.96-1.025,9.633-1.136.744-.112,1.316-.223,1.775-.29a3.577,3.577,0,0,0,.778-.267.893.893,0,0,0,.227-.735,5.417,5.417,0,0,0-.378-.624l.378-.446,6.175,5.08-.4.446a3.665,3.665,0,0,0-1.911-.2c-.881.045-1.87.134-2.973.29-1.076.134-5.474.869-6.21.914l-3.008,13.525a1.1,1.1,0,0,0-.069.69,1.313,1.313,0,0,0,.248.491l-.381.467-6.228-5.236.356-.445a2.262,2.262,0,0,0,.631.356.663.663,0,0,0,.78-.245,2.346,2.346,0,0,0,.269-.735c.107-.424,1.93-8.244,1.992-8.49l-5.43.892-2.685,3.141a.553.553,0,0,0-.169.736,1.716,1.716,0,0,0,.439.668l-.423.446-5.58-5.1.383-.468a1.116,1.116,0,0,0,.615.379.855.855,0,0,0,.745-.4l12.589-14.394c.252-.29.352-.557.252-.8a.938.938,0,0,0-.4-.535l.4-.49Zm144.358,1.114a8.546,8.546,0,0,1,.981.089,2.821,2.821,0,0,1,1.092.4,1.867,1.867,0,0,1,.869.624,1.7,1.7,0,0,1,.4,1.114,1.6,1.6,0,0,1-.4,1.092,2.016,2.016,0,0,1-.869.691,4.454,4.454,0,0,1-1.092.334,3.919,3.919,0,0,1-.981.089,5.163,5.163,0,0,1-2.072-.423,1.892,1.892,0,0,1-.869-.691,1.681,1.681,0,0,1-.334-1.092,1.788,1.788,0,0,1,.334-1.114,1.759,1.759,0,0,1,.869-.624,2.692,2.692,0,0,1,1.092-.4C488.923,663.4,489.279,663.357,489.524,663.357Zm19.787.98a3.16,3.16,0,0,1,1.671.424,3.707,3.707,0,0,1,1.181,1.025,6.2,6.2,0,0,1,.69,1.448,8.654,8.654,0,0,1,.179,1.671,8.125,8.125,0,0,1-.179,1.671,6.388,6.388,0,0,1-.69,1.471,4.09,4.09,0,0,1-1.181,1.047,3.371,3.371,0,0,1-1.671.379,3.46,3.46,0,0,1-1.738-.379,3.292,3.292,0,0,1-1.159-1.047,4.018,4.018,0,0,1-.669-1.471,6.9,6.9,0,0,1-.2-1.671,7.316,7.316,0,0,1,.2-1.671,3.908,3.908,0,0,1,.669-1.448,3.035,3.035,0,0,1,1.159-1.025A3.239,3.239,0,0,1,509.311,664.337Zm131.551,10.317.356.468a2.579,2.579,0,0,0-.579.735c-.156.245-.089.49.178.78L652.6,691.61c.268.29.513.4.736.357a5.036,5.036,0,0,0,.891-.424l.334.468-6.261,4.9-.4-.49a2.934,2.934,0,0,0,.624-.757.618.618,0,0,0-.156-.736l-11.81-15c-.245-.29-.467-.424-.735-.379-.223.089-.468.245-.847.446l-.356-.468,6.239-4.88Zm-277.92,2.963,14.826,10.651a.627.627,0,0,0,.5.111c.213-.022.45-.2.7-.557l.415.268-3.9,5.481-.424-.29a1.466,1.466,0,0,0,.406-.935.8.8,0,0,0-.261-.446l-9.574-6.841-2.355,3.276,6.123,4.434a.751.751,0,0,0,.543.089c.225-.022.459-.245.729-.6l.4.245-3.812,5.37-.4-.289c.267-.4.4-.669.338-.936a.726.726,0,0,0-.256-.423l-6.141-4.435-2.89,4.033,9.287,6.685c.439.334.978.178,1.589-.423l.379.289-3.877,5.392-.3-.245c.136-.445.19-.757.11-.891a1.262,1.262,0,0,0-.524-.468l-14.557-10.5.361-.467a3.445,3.445,0,0,0,.727.267.706.706,0,0,0,.719-.379l11.128-15.6a.614.614,0,0,0,.116-.758,1.765,1.765,0,0,0-.486-.624l.352-.49Zm255.282,13.169.312.512c-.268.2-.379.446-.2.713a9.115,9.115,0,0,0,1.07.936c.623.557,14.572,11.631,15.263,12.211a.777.777,0,0,0,.49.178.716.716,0,0,0,.445-.156l.312.512-5.5,3.588-.335-.513a3.378,3.378,0,0,1,.268-.223c.134-.089.111-.223-.022-.423a4.09,4.09,0,0,0-.446-.468c-.245-.223-2.117-1.671-2.273-1.827l-8,4.79c.067.268.468,2.518.49,2.83.089.29.134.468.2.624.133.2.245.245.379.245a.689.689,0,0,0,.289-.133l.334.534-5.258,2.875-.29-.535a1.068,1.068,0,0,0,.424-.847c-.513-2.406-3.365-16.978-3.61-18.249a22.2,22.2,0,0,0-.579-2.205c-.156-.246-.357-.312-.691-.179l-.29-.49,7.22-4.3Zm-226.516,5.748,16.281,8.267a.641.641,0,0,0,.539.045c.216-.045.4-.268.608-.669l.442.2-3.06,6.038-.423-.223a1.355,1.355,0,0,0,.214-.958.859.859,0,0,0-.332-.468l-10.475-5.3-1.818,3.632,6.745,3.431a1.052,1.052,0,0,0,.548.023c.189-.067.39-.312.63-.713l.442.2-2.973,5.883-.441-.223c.207-.446.3-.758.2-.958-.062-.245-.169-.379-.339-.424l-6.749-3.453-2.259,4.456,10.247,5.169h0c.45.245.951.023,1.488-.668l.406.245-2.982,5.882-.338-.178c.071-.49.069-.78-.041-.913a1.558,1.558,0,0,0-.59-.379L381.7,716.321l.287-.491a3.448,3.448,0,0,0,.778.156c.243,0,.439-.133.6-.468l8.657-17.112a.63.63,0,0,0,.009-.8,1.919,1.919,0,0,0-.593-.49l.27-.58Zm225.4,1.048,1.693,9.269,5.749-3.431-7.442-5.838Zm-13.837,1.76.245.557a1.7,1.7,0,0,0-.624.535c-.2.2-.2.445,0,.757l7.954,17.358c.156.334.357.535.557.535a2.614,2.614,0,0,0,.825-.179l.223.557-6.64,3.343-.268-.58a3.429,3.429,0,0,0,.669-.4.441.441,0,0,0,.111-.646,3.868,3.868,0,0,0-1.47-1.181c-.936-.512-2.05-1.114-3.387-1.849-1.359-.713-7.888-4.189-9.537-5.236l-.067.133,5.482,11.966a.867.867,0,0,0,.557.534,2.549,2.549,0,0,0,.757-.156l.268.535-6.351,2.7-.267-.557a1.213,1.213,0,0,0,.579-.468.708.708,0,0,0-.022-.757L584.912,709.5c-.178-.378-.356-.534-.6-.534a1.619,1.619,0,0,0-.758.133l-.267-.579,8.823-3.766.246.558a1.42,1.42,0,0,0-.424.4.6.6,0,0,0,.022.735,3.609,3.609,0,0,0,1,.646c.691.379,8.467,4.657,9.737,5.348l-4.144-9.024c-.156-.357-.379-.513-.557-.513a2.744,2.744,0,0,0-.8.134l-.245-.535,6.328-3.164Zm-185.788,9.447,7.908,2.964-.22.579c-.361-.089-.569,0-.676.29a7.749,7.749,0,0,0-.082,1.381c0,.869.1,18.695.065,19.586a.714.714,0,0,0,.187.535.985.985,0,0,0,.4.267l-.236.535-6.21-2.1.219-.557a1.139,1.139,0,0,0,.287.067c.116.022.232-.111.339-.312a2.924,2.924,0,0,0,.064-.646v-2.919l-8.741-3.275c-.189.245-1.68,1.983-1.876,2.228a5.437,5.437,0,0,0-.374.512c-.08.2-.065.379.06.468a1.245,1.245,0,0,0,.261.134l-.2.557-5.544-2.273.246-.579a1.092,1.092,0,0,0,.481.045.669.669,0,0,0,.423-.223c1.571-1.916,11.172-13.3,12-14.3a10.369,10.369,0,0,0,1.3-1.716c.143-.289.036-.512-.278-.668Zm143.274.58.914,3.119-7.509,2.251-.958-3.12,7.553-2.25Zm18.628.713.2.557a2.5,2.5,0,0,0-.824.512c-.2.156-.223.424-.089.758l6.417,18c.111.311.267.512.557.534a2.6,2.6,0,0,0,.936-.133l.2.579-7.464,2.7-.2-.579a2.3,2.3,0,0,0,.825-.513c.222-.133.222-.4.089-.757l-6.462-18c-.134-.356-.29-.535-.557-.535a2.157,2.157,0,0,0-.936.112l-.2-.58,7.509-2.651Zm-159.943,5.035-6.192,7.108,6.274,2.362Zm143.32.446.179.579c-.312.112-.491.357-.379.647.044.089.29.467.78,1.158.468.691,10.918,15.152,11.5,15.909a.457.457,0,0,0,.379.268.922.922,0,0,0,.49,0l.134.579-6.328,1.939-.112-.6a.339.339,0,0,0,.245-.112c.134-.066.179-.2.112-.445a6.188,6.188,0,0,0-.29-.6c-.2-.223-1.537-2.161-1.693-2.362l-9,2.5c0,.245-.178,2.607-.223,2.874a2.959,2.959,0,0,0,0,.646c.067.268.178.357.312.357a1.541,1.541,0,0,1,.267-.022l.179.579L553.5,740.83l-.156-.6a1.274,1.274,0,0,0,.446-.245.678.678,0,0,0,.2-.468c.134-2.518,1.315-17.335,1.426-18.605a14.194,14.194,0,0,0,.067-2.229c-.067-.267-.267-.4-.624-.334l-.2-.6,8.11-2.184Zm-16.934,2.808.29,1.448a8.123,8.123,0,0,0-1.76,1.916,4.743,4.743,0,0,0-.691,2.808,3.228,3.228,0,0,1,4.078,2.874,3.259,3.259,0,0,1-.491,2.651,2.761,2.761,0,0,1-1.871,1.315,2.448,2.448,0,0,1-2.563-.891,5.713,5.713,0,0,1-1.359-2.986,7.824,7.824,0,0,1-.022-2.963,9.072,9.072,0,0,1,.869-2.518,8.612,8.612,0,0,1,1.649-2.072,17.075,17.075,0,0,1,1.871-1.582Zm-92.8,1.069a11.083,11.083,0,0,1,5.481,1.649,10.108,10.108,0,0,1,4.7,6.751,12.357,12.357,0,0,1-.112,5.17,12.508,12.508,0,0,1-1.961,4.879,10.426,10.426,0,0,1-3.186,2.942,9.429,9.429,0,0,1-3.743,1.181,12.058,12.058,0,0,1-7.487-1.516,10.892,10.892,0,0,1-3.01-2.651,10.475,10.475,0,0,1-1.725-3.922,14.3,14.3,0,0,1,2.1-10.138,9.794,9.794,0,0,1,3.2-2.919,9.915,9.915,0,0,1,3.788-1.337,14.464,14.464,0,0,1,1.961-.089Zm106.908,2.317-.869,9.4,6.439-1.76-5.57-7.643Zm-40.219,1.894.045.624c-.312.045-.513.245-.468.513a6.291,6.291,0,0,0,.512,1.314c.312.758,7.71,16.979,8.088,17.892a1.038,1.038,0,0,0,.357.335,1.774,1.774,0,0,0,.512.089v.6l-6.595.647-.045-.6a2.25,2.25,0,0,0,.335-.067c.133-.044.178-.2.156-.423a1.506,1.506,0,0,0-.156-.58c-.112-.311-1.07-2.451-1.226-2.7l-9.269.624c-.067.312-.691,2.54-.8,2.785a2.522,2.522,0,0,0-.112.669.386.386,0,0,0,.223.4,1.373,1.373,0,0,0,.312,0l.045.624-5.972.178-.022-.6a.773.773,0,0,0,.446-.155.694.694,0,0,0,.312-.4c.623-2.406,4.7-16.711,5.035-18a14.382,14.382,0,0,0,.513-2.1.527.527,0,0,0-.557-.49l-.045-.6,8.378-.58Zm-37.545.112,7.487.49v.6a2.844,2.844,0,0,0-.78.178c-.245.089-.379.267-.379.668l-.267,9.314c.379-.423,6.239-6.439,6.729-7,.468-.535.914-1.025,1.2-1.36a3,3,0,0,0,.424-.668.673.673,0,0,0-.335-.735,1.837,1.837,0,0,0-.646-.223v-.58l8.044.023-.067.579A3.374,3.374,0,0,0,502,726.1c-.646.58-1.381,1.315-2.161,2.117-.758.8-3.7,4.167-4.234,4.612l6.239,12.434a.959.959,0,0,0,.891.8l-.022.6-8.133-.089v-.6a2.235,2.235,0,0,0,.713-.112.7.7,0,0,0,.468-.713,4.531,4.531,0,0,0-.267-.735c-.178-.379-3.743-7.554-3.855-7.821l-3.61,4.144-.133,4.1c-.023.4.111.646.356.736a1.432,1.432,0,0,0,.758.2l-.022.624-7.554-.423v-.6a.931.931,0,0,0,.691-.134c.223-.111.334-.356.379-.735l.623-19.185a.94.94,0,0,0-.334-.757,1.065,1.065,0,0,0-.668-.156l.044-.646Zm-29.434,1.025a6.046,6.046,0,0,0-1.092.111,5.572,5.572,0,0,0-1.96.825,5.3,5.3,0,0,0-1.538,1.6,6.331,6.331,0,0,0-.891,2.429,5.711,5.711,0,0,0-.111,2.517,5.208,5.208,0,0,0,.735,2.117,5.463,5.463,0,0,0,1.493,1.538,4.971,4.971,0,0,0,1.938.824,5.13,5.13,0,0,0,2.251.022A4.8,4.8,0,0,0,455.5,736a5.518,5.518,0,0,0,1.56-1.648,5.993,5.993,0,0,0,.913-2.385,7.74,7.74,0,0,0,.09-2.562,5.5,5.5,0,0,0-.758-2.1,5.375,5.375,0,0,0-1.471-1.537,5.1,5.1,0,0,0-1.983-.847,4.9,4.9,0,0,0-1.114-.133Zm62.991,4.411-2.741,9.025,6.685-.446Z"/></g><path class="b" d="M260.148,531.937q0-20.847,17.639-32.605t56.923-15.768q-.537-8.819-5.344-14.03t-15.5-5.211a48.422,48.422,0,0,0-17.1,3.206,119.957,119.957,0,0,0-18.172,8.82l-13.9-25.923a139,139,0,0,1,26.858-12.561,91.231,91.231,0,0,1,29.8-4.81q25.656,0,39.152,14.565t13.5,45.3v75.9h-32.07l-2.939-13.629h-.8a83.387,83.387,0,0,1-18.039,12.16,46.243,46.243,0,0,1-20.712,4.676,41.278,41.278,0,0,1-16.3-3.073,35.4,35.4,0,0,1-12.294-8.552,39.517,39.517,0,0,1-7.883-12.694A43.12,43.12,0,0,1,260.148,531.937ZM297.563,529q0,6.414,4.143,9.487t11.09,3.075a22.124,22.124,0,0,0,11.759-2.941,56.071,56.071,0,0,0,10.155-8.284V507.082q-21.114,2.945-29.129,8.552T297.563,529Z"/><path class="b" d="M399.918,502.54c0-44.1,32.336-69.483,68.949-69.483,15.233,0,34.741,7.216,47.034,18.44L498,476.351c-6.948-6.682-18.172-11.492-26.724-11.492-19.242,0-31,14.431-31,37.681s12.561,37.682,29.665,37.682c9.353,0,21.379-4.543,28.06-11.492l17.9,24.586c-14.7,13.363-33.672,18.707-50.508,18.707C428.513,572.023,399.918,546.636,399.918,502.54Z"/><path class="b" d="M540.754,436.264H575.5v17.1h1.069c10.957-10.957,22.715-20.311,40.086-20.311,18.975,0,29.932,8.018,36.613,22.181,11.758-12.026,23.784-22.181,41.689-22.181,28.6,0,41.423,20.311,41.423,53.449v82.31H697.091V491.583c0-19.241-4.811-25.121-16.3-25.121-6.682,0-14.164,4.276-22.716,12.828v89.526H618.788V491.583c0-19.241-4.81-25.121-16.3-25.121q-10.02,0-22.448,12.828v89.526H540.754Z"/></svg>